<mxfile host="app.diagrams.net" modified="2023-10-15T19:27:20.437Z" agent="Mozilla/5.0 (Windows NT 10.0; Win64; x64) AppleWebKit/537.36 (KHTML, like Gecko) Chrome/118.0.0.0 Safari/537.36" etag="NNBYgd_gylUd1H9-GRBd" version="22.0.4" type="github">
  <diagram name="Page-1" id="U_qMfQ_dqHaO0jfc5E2Y">
    <mxGraphModel dx="2163" dy="708" grid="1" gridSize="10" guides="1" tooltips="1" connect="1" arrows="1" fold="1" page="1" pageScale="1" pageWidth="850" pageHeight="1100" math="0" shadow="0">
      <root>
        <mxCell id="0" />
        <mxCell id="1" parent="0" />
        <mxCell id="lzudfqjjJk2nV8cWTDHu-16" style="edgeStyle=orthogonalEdgeStyle;rounded=0;orthogonalLoop=1;jettySize=auto;html=1;exitX=0;exitY=0.5;exitDx=0;exitDy=0;entryX=1;entryY=0.5;entryDx=0;entryDy=0;" edge="1" parent="1" source="lzudfqjjJk2nV8cWTDHu-1" target="lzudfqjjJk2nV8cWTDHu-4">
          <mxGeometry relative="1" as="geometry">
            <Array as="points">
              <mxPoint x="60" y="115" />
              <mxPoint x="60" y="180" />
            </Array>
          </mxGeometry>
        </mxCell>
        <mxCell id="lzudfqjjJk2nV8cWTDHu-17" style="edgeStyle=orthogonalEdgeStyle;rounded=0;orthogonalLoop=1;jettySize=auto;html=1;exitX=0;exitY=0.75;exitDx=0;exitDy=0;entryX=0.75;entryY=0;entryDx=0;entryDy=0;" edge="1" parent="1" source="lzudfqjjJk2nV8cWTDHu-1" target="lzudfqjjJk2nV8cWTDHu-2">
          <mxGeometry relative="1" as="geometry" />
        </mxCell>
        <mxCell id="lzudfqjjJk2nV8cWTDHu-18" style="edgeStyle=orthogonalEdgeStyle;rounded=0;orthogonalLoop=1;jettySize=auto;html=1;exitX=0.5;exitY=1;exitDx=0;exitDy=0;entryX=0.5;entryY=0;entryDx=0;entryDy=0;" edge="1" parent="1" source="lzudfqjjJk2nV8cWTDHu-1" target="lzudfqjjJk2nV8cWTDHu-15">
          <mxGeometry relative="1" as="geometry" />
        </mxCell>
        <mxCell id="lzudfqjjJk2nV8cWTDHu-19" style="edgeStyle=orthogonalEdgeStyle;rounded=0;orthogonalLoop=1;jettySize=auto;html=1;exitX=1;exitY=0.75;exitDx=0;exitDy=0;entryX=0.25;entryY=0;entryDx=0;entryDy=0;" edge="1" parent="1" source="lzudfqjjJk2nV8cWTDHu-1">
          <mxGeometry relative="1" as="geometry">
            <mxPoint x="630" y="280.0000000000001" as="targetPoint" />
          </mxGeometry>
        </mxCell>
        <mxCell id="lzudfqjjJk2nV8cWTDHu-21" style="edgeStyle=orthogonalEdgeStyle;rounded=0;orthogonalLoop=1;jettySize=auto;html=1;exitX=1;exitY=0.5;exitDx=0;exitDy=0;entryX=0;entryY=0.5;entryDx=0;entryDy=0;" edge="1" parent="1" source="lzudfqjjJk2nV8cWTDHu-1" target="lzudfqjjJk2nV8cWTDHu-6">
          <mxGeometry relative="1" as="geometry" />
        </mxCell>
        <mxCell id="lzudfqjjJk2nV8cWTDHu-1" value="&lt;div style=&quot;font-size: 17px;&quot;&gt;&lt;b style=&quot;&quot;&gt;&lt;font style=&quot;font-size: 17px;&quot;&gt;int main()&amp;nbsp; &amp;nbsp;&lt;/font&gt;&lt;/b&gt;&lt;/div&gt;&lt;div style=&quot;font-size: 13px;&quot;&gt;&lt;font style=&quot;font-size: 13px;&quot;&gt;vector&amp;lt;string&amp;gt;&amp;nbsp; &amp;nbsp; &amp;nbsp; args;&amp;nbsp;&lt;/font&gt;&lt;/div&gt;&lt;div style=&quot;font-size: 13px;&quot;&gt;&amp;nbsp; &amp;nbsp; logger&amp;nbsp; &amp;nbsp; &amp;nbsp; &amp;nbsp; &amp;nbsp; &amp;nbsp; &amp;nbsp; *log;&lt;/div&gt;&lt;div&gt;&amp;nbsp; &amp;nbsp; bool&amp;nbsp; &amp;nbsp; &amp;nbsp; &amp;nbsp; &amp;nbsp; &amp;nbsp; &amp;nbsp; &amp;nbsp; status;&lt;/div&gt;&lt;div&gt;....&lt;/div&gt;&lt;div&gt;.....&lt;/div&gt;&lt;div&gt;backup_util* instance;&lt;/div&gt;" style="rounded=0;whiteSpace=wrap;html=1;" vertex="1" parent="1">
          <mxGeometry x="250" y="40" width="220" height="150" as="geometry" />
        </mxCell>
        <mxCell id="lzudfqjjJk2nV8cWTDHu-2" value="" style="rounded=0;whiteSpace=wrap;html=1;" vertex="1" parent="1">
          <mxGeometry y="280" width="120" height="180" as="geometry" />
        </mxCell>
        <mxCell id="lzudfqjjJk2nV8cWTDHu-4" value="" style="rounded=0;whiteSpace=wrap;html=1;" vertex="1" parent="1">
          <mxGeometry x="-270" y="90" width="120" height="180" as="geometry" />
        </mxCell>
        <mxCell id="lzudfqjjJk2nV8cWTDHu-6" value="" style="rounded=0;whiteSpace=wrap;html=1;" vertex="1" parent="1">
          <mxGeometry x="850" y="90" width="120" height="180" as="geometry" />
        </mxCell>
        <mxCell id="lzudfqjjJk2nV8cWTDHu-15" value="" style="rounded=0;whiteSpace=wrap;html=1;" vertex="1" parent="1">
          <mxGeometry x="300" y="280" width="120" height="180" as="geometry" />
        </mxCell>
        <mxCell id="lzudfqjjJk2nV8cWTDHu-24" value="" style="rounded=0;whiteSpace=wrap;html=1;" vertex="1" parent="1">
          <mxGeometry x="570" y="280" width="120" height="180" as="geometry" />
        </mxCell>
      </root>
    </mxGraphModel>
  </diagram>
</mxfile>
